<?xml version="1.0" standalone="no"?><!DOCTYPE svg PUBLIC "-//W3C//DTD SVG 1.1//EN" "http://www.w3.org/Graphics/SVG/1.1/DTD/svg11.dtd"><svg width="200" height="200" viewBox="0 0 200 200" version="1.1" xmlns="http://www.w3.org/2000/svg" xmlns:xlink="http://www.w3.org/1999/xlink"><defs><style type="text/css"><![CDATA[
@font-face { font-family: ifont; src: url(http://at.alicdn.com/t/font_1442373896_4754455.eot?#iefix) format(embedded-opentype), url(http://at.alicdn.com/t/font_1442373896_4754455.woff) format(woff), url(http://at.alicdn.com/t/font_1442373896_4754455.ttf) format(truetype), url(http://at.alicdn.com/t/font_1442373896_4754455.svg#ifont) format(svg); }

]]></style></defs><g class="transform-group"><g transform="scale(0.1953125, 0.1953125)"><path d="M595.788823 211.547067c0 0 0.355087 0.603751 0.868787 1.508353C596.106048 212.097606 595.788823 211.547067 595.788823 211.547067zM708.451 338.788l-101.275-65.733 101.292 65.733c-64.606-106.091-112.68-191.241-112.68-191.241h-168.72c0 0-54.78 100.938-126.306 219.906-102.729 170.806-239.997 378.819-299.441 378.819 62.195 0 395.076 0 529.719 0 4.666-5.942 9.152-12.178 13.287-18.768 1.65-2.607 3.246-5.286 4.825-7.974 0.407-0.718 0.833-1.429 1.259-2.146 1.862-3.264 3.654-6.583 5.41-9.944 0.089-0.194 0.195-0.372 0.302-0.576 5.641-10.954 10.697-22.396 15.239-34.095 0.302-0.737 0.55-1.491 0.851-2.227 1.188-3.087 2.324-6.156 3.441-9.26 0.39-1.101 0.763-2.236 1.134-3.336 0.959-2.731 1.917-5.462 2.804-8.205 0.443-1.329 0.833-2.669 1.259-4.018 0.798-2.51 1.578-5.039 2.341-7.549 20.879-69.512 25.297-137.738 22.636-148.948-0.178-0.746-0.214-1.65-0.178-2.663-10.448-1.143-25.988-1.099-44.242 1.668-26.342 3.956-58.611 22.13-61.964 15.673-1.738-3.318 24.57-31.958 45.945-40.97-27.408-4.204-51.41-1.881-66.151-1.543-8.409 0.177-16.835 1.090-18.095-0.116-2.661-2.537 13.465-12.088 24.747-15.664 8.036-2.554 25.972-9.509 53.662-3.184 25.615 5.819 48.907 19.176 61.75 27.567-0.16-0.32-0.282-0.622-0.425-0.968-15.594-40.791-54.709-54.192-72.502-63.178-6.545-3.3-13.695-5.899-13.624-7.593 0.16-3.583 20.525-6.297 32.109-5.162 8.302 0.798 27.779 1.401 43.354 19.035 6.582 7.468 11.443 16.303 15.026 25.013 1.242-16.613 4.647-36.429 13.588-51.924 14.811-25.598 42.911-25.341 47.276-25.118 4.363 0.248 3.388 10.413-1.224 23.691-4.578 13.26-13.322 24.641-23.967 43.364-3.46 6.059-8.196 14.077-13.055 22.157 8.196-9.313 19.033-19.212 31.949-25.243 21.482-10.014 39.594-2.927 47.488-0.418 11.070 3.504 28.615 13.97 27.302 17.306-0.639 1.605-8.266 1.171-15.593 1.631-20.010 1.242-61.342-1.827-92.351 29.413-0.426 0.407-0.781 0.762-1.188 1.127 14.831-5.35 39.027-12.428 63.666-12.56 28.438-0.177 44.366 10.449 51.641 14.679 10.181 5.926 23.734 18.715 20.595 20.615-1.508 0.905-9.509-1.793-17.686-3.796-22.068-5.384-64.537-20.24-113.551-9.083 14.706 2.99 34.15 11.086 45.448 32.729 10.29 19.691 3.53 66.222-0.602 67.091-7.22 1.596-13.429-34.326-27.090-56.695-9.933-16.285-20.329-28.436-28.027-35.443 3.476 67.731-3.744 124.716-14.352 169.838 0 0 0 0-0.017 0-3.939 16.755-8.338 31.86-12.809 45.271-0.089 0.204-0.142 0.416-0.213 0.62-0.817 2.43-1.65 4.825-2.466 7.131-0.088 0.257-0.177 0.496-0.265 0.745-0.817 2.324-1.65 4.596-2.486 6.795-0.051 0.16-0.105 0.293-0.14 0.426-3.514 9.314-6.955 17.563-10.184 24.782 6.901 0 10.716 0 10.716 0s368.376 0 433.872 0c-54.653-0.001-206.396-232.291-313.064-407.486zM432.993 165.936h156.977c9.453 16.56 35.939 62.762 71.312 122.154l-49.121-31.878c-1.614-1.046-3.301-1.552-4.986-1.552-3.777 0-7.504 2.573-9.916 7.247l-28.011 54.354-40.251-47.595c-2.271-2.688-5.019-4.036-7.787-4.036-2.607 0-5.232 1.216-7.451 3.672l-74.345 82.418c-2.626-42.841-4.098-68.315-4.56-83.447-0.213-6.519-2.714-12.418-6.651-15.451-1.81-1.384-3.796-2.094-5.765-2.094-2.307 0-4.612 0.94-6.617 2.82-10.945 10.166-31.008 27.017-60.775 51.046 38.742-66.639 67.941-119.414 77.946-137.658zM544.61021 539.532053c-1.100054 0.674359-1.473561 2.067079-0.781806 3.1569 0.444115 0.692778 1.188058 1.101077 1.969864 1.101077 0.408299 0 0.832971-0.13303 1.206478-0.355087 18.466584-10.980076 46.051849-1.560542 46.334281-1.471514 1.224898 0.424672 2.555196-0.196475 2.980891-1.385557 0.445138-1.178849-0.194428-2.483564-1.419326-2.90005C593.676719 537.263383 564.922838 527.442714 544.61021 539.532053zM666.657894 599.783299c0.212848 1.091868 1.188058 1.836835 2.270716 1.836835 0.14224 0 0.301875-0.00921 0.460488-0.034792 1.258667-0.248663 2.093684-1.456165 1.827625-2.679016-4.719488-23.3805-27.832905-39.96727-28.808116-40.676421-1.046842-0.727571-2.484587-0.496304-3.247974 0.514723-0.762363 1.020236-0.512676 2.447748 0.515746 3.192715C639.888204 562.095955 662.293493 578.195631 666.657894 599.783299zM617.128851 520.417717c1.24127 0 2.252297-0.956791 2.323928-2.172479 2.093684-42.167379 31.931247-75.906807 32.232099-76.226079 0.851391-0.940418 0.74599-2.394537-0.212848-3.201925-0.974188-0.832971-2.446725-0.753153-3.299139 0.204661-1.25969 1.410116-31.221072 35.248805-33.366945 79.003332-0.071631 1.266853 0.920976 2.332115 2.198062 2.393513C617.039823 520.417717 617.075639 520.417717 617.128851 520.417717z" fill="#b88432"></path></g></g></svg>