<?xml version="1.0" standalone="no"?><!DOCTYPE svg PUBLIC "-//W3C//DTD SVG 1.1//EN" "http://www.w3.org/Graphics/SVG/1.1/DTD/svg11.dtd"><svg width="200" height="200" viewBox="0 0 200 200" version="1.1" xmlns="http://www.w3.org/2000/svg" xmlns:xlink="http://www.w3.org/1999/xlink"><defs><style type="text/css"><![CDATA[
@font-face { font-family: ifont; src: url(http://at.alicdn.com/t/font_1442373896_4754455.eot?#iefix) format(embedded-opentype), url(http://at.alicdn.com/t/font_1442373896_4754455.woff) format(woff), url(http://at.alicdn.com/t/font_1442373896_4754455.ttf) format(truetype), url(http://at.alicdn.com/t/font_1442373896_4754455.svg#ifont) format(svg); }

]]></style></defs><g class="transform-group"><g transform="scale(0.1953125, 0.1953125)"><path d="M967.491 618.556c-31.594-111.612-95.471-231.18-167.131-314.233-17.398-19.975-22.437-22.205-43.957-2.918-53.804 47.736-112.872 83.052-168.851 100.966-22.321 7.040-26.098 4.008-32.851-17.056-2.291-6.638-4.58-12.477-7.327-17.914-6.641-13.451-7.099-16.599 0.686-30.222 2.519-4.407 5.953-8.984 8.701-13.164 13.965-20.777 13.509-21.349-12.249-12.365-40.18 13.909-62.39 40.641-74.979 75.326-7.557 20.262-12.249 21.921-32.624 15.511-56.207-17.86-115.277-53.232-169.309-101.082-21.52-19.287-26.558-17.056-43.958 2.918-71.66 83.054-135.422 202.621-167.131 314.233-15.111 53.346-11.906 51.457 19.231 20.264 52.657-53.29 119.397-100.567 177.664-126.784 26.214-11.905 46.933-12.764 76.239-6.353 31.364 6.638 61.931 16.199 88.947 28.39 27.474 12.363 38.805 23.583 52.428 48.422 11.103 20.377 20.835 42.586 28.503 63.362 11.221 29.819 14.081 29.534 24.27 1.773 7.783-21.177 17.857-44.073 29.19-65.135 13.623-24.839 24.958-36.060 52.43-48.422 27.132-12.191 57.58-21.751 88.946-28.39 29.305-6.411 50.025-5.552 76.239 6.353 58.269 26.215 125.007 73.492 177.663 126.783 31.138 31.193 34.344 33.081 19.232-20.264z" fill="#7281F7"></path></g></g></svg>