<?xml version="1.0" standalone="no"?><!DOCTYPE svg PUBLIC "-//W3C//DTD SVG 1.1//EN" "http://www.w3.org/Graphics/SVG/1.1/DTD/svg11.dtd"><svg width="200" height="200" viewBox="0 0 200 200" version="1.1" xmlns="http://www.w3.org/2000/svg" xmlns:xlink="http://www.w3.org/1999/xlink"><defs><style type="text/css"><![CDATA[
@font-face { font-family: ifont; src: url(http://at.alicdn.com/t/font_1442373896_4754455.eot?#iefix) format(embedded-opentype), url(http://at.alicdn.com/t/font_1442373896_4754455.woff) format(woff), url(http://at.alicdn.com/t/font_1442373896_4754455.ttf) format(truetype), url(http://at.alicdn.com/t/font_1442373896_4754455.svg#ifont) format(svg); }

]]></style></defs><g class="transform-group"><g transform="scale(0.1953125, 0.1953125)"><path d="M503.133052 63.569828l0 0.974188-9.721409 0c-236.20056 0-429.011914 192.162578-429.011914 428.363138l0 18.160615 0.017396 0 0 447.585945 456.417077 0 0-0.757247 9.414417 0c236.20056 0 429.250344-192.168718 429.250344-428.369278l0-9.849322 0.051165 0L959.550129 63.569828 503.133052 63.569828zM817.365826 271.249821c-10.340509 33.743522-68.288293 59.929928-102.172007 74.137511-95.018074 39.838334-179.730431 100.17042-259.969916 200.356191l215.367069 0c30.721699 0 55.857169 25.13547 55.857169 55.856146 0 30.721699-25.13547 55.857169-55.857169 55.857169L410.843112 657.456836c-10.32209 0-20.006659-2.847861-28.326139-7.78122-18.71627 30.326702-37.279045 63.281255-55.767118 99.145068-8.069793 15.653515-37.313837 59.70173-55.623855 59.992349-78.721923 1.25048-70.082148-50.160423-67.168796-76.346829 0.11461-1.030469 0.25992-2.057869 0.491187-3.068895 1.76418-7.720845 5.640464-16.865109 6.66991-19.36914 25.50693-62.010309 55.193043-116.489084 87.234807-164.318416-1.669012-5.112438-2.582825-10.558473-2.582825-16.20917L295.770284 344.127641c0-28.939099 23.677259-52.616358 52.616358-52.616358l1.292436 0c28.939099 0 52.616358 23.677259 52.616358 52.616358l0 74.614371C552.875966 267.592524 712.627367 223.482911 736.240157 217.262232c1.899256-0.500397 3.818979-0.905626 5.762237-1.193175C821.75581 204.28671 829.123614 232.884025 817.365826 271.249821z" fill="#11cd6e"></path></g></g></svg>